<!--?xml version="1.0" encoding="utf-8"?-->
<!-- Generator: Adobe Illustrator 18.1.1, SVG Export Plug-In . SVG Version: 6.00 Build 0)  -->

<svg version="1.1" id="_x31_0" xmlns="http://www.w3.org/2000/svg" xmlns:xlink="http://www.w3.org/1999/xlink" x="0px" y="0px" viewBox="0 0 512 512" style="width: 256px; height: 256px; opacity: 1;" xml:space="preserve">
<style type="text/css">
	.st0{fill:#374149;}
</style>
<g>
	<path class="st0" d="M433.394,67.678C385.558,27.772,322.558,5.795,256,5.795c-66.558,0-129.558,21.977-177.394,61.883
		C27.914,109.963,0,167.033,0,228.38c0,61.344,27.914,118.418,78.606,160.703c44.285,36.942,101.566,58.52,162.637,61.52
		l56.426,44.062c9.73,7.602,21.566,11.539,33.531,11.539c6.883,0,13.817-1.305,20.406-3.973
		c18.043-7.289,30.82-23.656,33.523-42.926l5.848-41.672C465.438,377.49,512,306.044,512,228.38
		C512,167.033,484.082,109.963,433.394,67.678z M448.668,277.724c-1.25,3.402-2.614,6.762-4.11,10.066
		c-0.679,1.492-1.469,2.942-2.195,4.414c-1.05,2.133-2.074,4.277-3.226,6.367c-0.981,1.773-2.082,3.496-3.133,5.238
		c-1.074,1.777-2.098,3.574-3.242,5.312c-1.035,1.574-2.179,3.094-3.274,4.637c-1.339,1.883-2.637,3.789-4.054,5.625
		c-0.836,1.082-1.758,2.118-2.621,3.184c-1.84,2.258-3.672,4.527-5.637,6.71c-0.375,0.414-0.79,0.809-1.164,1.219
		c-19.653,21.382-45.286,38.738-74.863,50.262l-6.645,47.355l-3.387,23.566l-70.781-55.277c-1.45,0.027-2.883,0.094-4.336,0.094
		c-111.305,0-201.531-75.27-201.531-168.118C54.469,135.533,144.695,60.26,256,60.26c111.301,0,201.531,75.274,201.531,168.121
		c0,16.84-2.973,33.098-8.496,48.434C448.922,277.123,448.782,277.42,448.668,277.724z" style="fill: rgb(255, 255, 255);"></path>
	<path class="st0" d="M338.625,215.51c-0.828-4.466-4.656-7.836-9.254-7.829l-41.406,0.059c-2.574,0.004-4.906-1.051-6.606-2.758
		c-1.687-1.746-2.73-4.144-2.726-6.793l0.062-42.371c0.008-4.722-3.316-8.648-7.703-9.476c-0.625-0.133-1.274-0.203-1.942-0.203
		L256,146.158l-13.05-0.019c-0.668,0-1.317,0.07-1.946,0.203c-4.383,0.828-7.707,4.754-7.699,9.476l0.062,42.371
		c0.004,2.649-1.039,5.047-2.726,6.793c-1.703,1.707-4.031,2.762-6.606,2.758l-41.406-0.059c-4.598-0.007-8.426,3.363-9.254,7.829
		c-0.137,0.652-0.211,1.332-0.211,2.027l0.019,13.359l-0.019,13.363c0,0.695,0.074,1.371,0.211,2.027
		c0.828,4.461,4.656,7.836,9.254,7.828l41.406-0.058c2.574-0.004,4.906,1.051,6.606,2.758c1.687,1.746,2.73,4.145,2.726,6.794
		l-0.058,38.515c-0.008,4.715,3.305,8.637,7.675,9.473c0.633,0.137,1.286,0.211,1.958,0.211l13.058-0.02l13.054,0.02
		c0.672,0,1.329-0.074,1.962-0.211c4.37-0.836,7.683-4.758,7.675-9.473l-0.058-38.515c-0.004-2.649,1.039-5.047,2.726-6.794
		c1.699-1.706,4.031-2.762,6.606-2.758l41.406,0.058c4.598,0.008,8.426-3.367,9.254-7.828c0.137-0.656,0.211-1.332,0.207-2.027
		l-0.015-13.363l0.015-13.359C338.836,216.842,338.762,216.162,338.625,215.51z" style="fill: rgb(255, 255, 255);"></path>
</g>
</svg>
